<svg xmlns="http://www.w3.org/2000/svg" version="1.1" xmlns:xlink="http://www.w3.org/1999/xlink" xmlns:svgjs="http://svgjs.dev/svgjs" width="1500" height="1500" viewBox="0 0 1500 1500"><rect width="1500" height="1500" fill="#ffffff"></rect><g transform="matrix(0.6666666666666666,0,0,0.6666666666666666,249.39393939393938,507.3674209390703)"><svg viewBox="0 0 396 192" data-background-color="#ffffff" preserveAspectRatio="xMidYMid meet" height="727" width="1500" xmlns="http://www.w3.org/2000/svg" xmlns:xlink="http://www.w3.org/1999/xlink"><g id="tight-bounds" transform="matrix(1,0,0,1,0.2400000000000091,0.1185457627892248)"><svg viewBox="0 0 395.52 191.76290847442155" height="191.76290847442155" width="395.52"><g><svg viewBox="0 0 648.6190617389605 314.47481232558016" height="191.76290847442155" width="395.52"><g transform="matrix(1,0,0,1,251.12146173896056,97.1772815780727)"><svg viewBox="0 0 397.4975999999999 120.12024916943476" height="120.12024916943476" width="397.4975999999999"><g id="textblocktransform"><svg viewBox="0 0 397.4975999999999 120.12024916943476" height="120.12024916943476" width="397.4975999999999" id="textblock"><g><rect width="397.4975999999999" height="5.640054792777389" x="0" y="69.18551898634583" fill="#000000" opacity="1" stroke-width="0" stroke="transparent" fill-opacity="1" class="rect-qz-0" data-fill-palette-color="primary" rx="1%" id="qz-0" data-palette-color="#000000"></rect></g><g transform="matrix(1,0,0,1,0.9887999999999693,0)"><svg viewBox="0 0 395.52 62.54147538228869" height="62.54147538228869" width="395.52"><g transform="matrix(1,0,0,1,0,0)"><svg width="395.52" viewBox="0.2 -37.1 297.53000000000003 47.05" height="62.54147538228869" data-palette-color="#000000"><path d="M12.5 0L12.5-31.8 0.2-31.8 0.2-35 28.5-35 28.5-31.8 16.2-31.8 16.2 0 12.5 0ZM36.35-21.15Q37.6-23.8 40.07-25.15 42.55-26.5 46.2-26.5L46.2-26.5 46.2-23.05 45.35-23.1Q41.2-23.1 38.85-20.55 36.5-18 36.5-13.4L36.5-13.4 36.5 0 32.95 0 32.95-26.3 36.35-26.3 36.35-21.15ZM75.3-13.15L75.25-12.05 53.25-12.05Q53.55-7.95 56.4-5.43 59.25-2.9 63.59-2.9L63.59-2.9Q66.05-2.9 68.09-3.78 70.15-4.65 71.65-6.35L71.65-6.35 73.65-4.05Q71.9-1.95 69.27-0.85 66.65 0.25 63.5 0.25L63.5 0.25Q59.45 0.25 56.32-1.48 53.2-3.2 51.45-6.25 49.7-9.3 49.7-13.15L49.7-13.15Q49.7-17 51.37-20.05 53.05-23.1 55.97-24.8 58.9-26.5 62.55-26.5L62.55-26.5Q66.2-26.5 69.09-24.8 72-23.1 73.65-20.08 75.3-17.05 75.3-13.15L75.3-13.15ZM62.55-23.45Q58.75-23.45 56.17-21.03 53.6-18.6 53.25-14.7L53.25-14.7 71.9-14.7Q71.55-18.6 68.97-21.03 66.4-23.45 62.55-23.45L62.55-23.45ZM102.89 0L92.29-13.2 86.09-7.5 86.09 0 82.54 0 82.54-37.1 86.09-37.1 86.09-11.95 101.79-26.3 106.19-26.3 94.94-15.55 107.24 0 102.89 0ZM113.34 0L113.34-35 127.59-35Q133.14-35 137.39-32.77 141.64-30.55 143.99-26.58 146.34-22.6 146.34-17.5L146.34-17.5Q146.34-12.4 143.99-8.43 141.64-4.45 137.39-2.23 133.14 0 127.59 0L127.59 0 113.34 0ZM117.04-3.2L127.39-3.2Q131.99-3.2 135.44-5.03 138.89-6.85 140.79-10.08 142.69-13.3 142.69-17.5L142.69-17.5Q142.69-21.7 140.79-24.93 138.89-28.15 135.44-29.98 131.99-31.8 127.39-31.8L127.39-31.8 117.04-31.8 117.04-3.2ZM176.84-13.15L176.79-12.05 154.79-12.05Q155.09-7.95 157.94-5.43 160.79-2.9 165.14-2.9L165.14-2.9Q167.59-2.9 169.64-3.78 171.69-4.65 173.19-6.35L173.19-6.35 175.19-4.05Q173.44-1.95 170.81-0.85 168.19 0.25 165.04 0.25L165.04 0.25Q160.99 0.25 157.86-1.48 154.74-3.2 152.99-6.25 151.24-9.3 151.24-13.15L151.24-13.15Q151.24-17 152.91-20.05 154.59-23.1 157.51-24.8 160.44-26.5 164.09-26.5L164.09-26.5Q167.74-26.5 170.64-24.8 173.54-23.1 175.19-20.08 176.84-17.05 176.84-13.15L176.84-13.15ZM164.09-23.45Q160.29-23.45 157.71-21.03 155.14-18.6 154.79-14.7L154.79-14.7 173.44-14.7Q173.09-18.6 170.51-21.03 167.94-23.45 164.09-23.45L164.09-23.45ZM191.13 0.25Q187.94 0.25 185.01-0.68 182.08-1.6 180.44-3L180.44-3 182.03-5.8Q183.69-4.5 186.19-3.68 188.69-2.85 191.38-2.85L191.38-2.85Q194.98-2.85 196.71-3.98 198.44-5.1 198.44-7.15L198.44-7.15Q198.44-8.6 197.48-9.43 196.53-10.25 195.08-10.68 193.63-11.1 191.23-11.5L191.23-11.5Q188.03-12.1 186.08-12.73 184.13-13.35 182.76-14.85 181.38-16.35 181.38-19L181.38-19Q181.38-22.3 184.13-24.4 186.88-26.5 191.78-26.5L191.78-26.5Q194.33-26.5 196.88-25.83 199.44-25.15 201.08-24.05L201.08-24.05 199.53-21.2Q196.28-23.45 191.78-23.45L191.78-23.45Q188.38-23.45 186.66-22.25 184.94-21.05 184.94-19.1L184.94-19.1Q184.94-17.6 185.91-16.7 186.88-15.8 188.33-15.38 189.78-14.95 192.33-14.5L192.33-14.5Q195.48-13.9 197.38-13.3 199.28-12.7 200.63-11.25 201.98-9.8 201.98-7.25L201.98-7.25Q201.98-3.8 199.11-1.78 196.23 0.25 191.13 0.25L191.13 0.25ZM221.13-4.15L222.38-1.6Q221.38-0.7 219.91-0.23 218.43 0.25 216.83 0.25L216.83 0.25Q213.13 0.25 211.13-1.75 209.13-3.75 209.13-7.4L209.13-7.4 209.13-23.3 204.43-23.3 204.43-26.3 209.13-26.3 209.13-32.05 212.68-32.05 212.68-26.3 220.68-26.3 220.68-23.3 212.68-23.3 212.68-7.6Q212.68-5.25 213.86-4.03 215.03-2.8 217.23-2.8L217.23-2.8Q218.33-2.8 219.36-3.15 220.38-3.5 221.13-4.15L221.13-4.15ZM228.83 0L228.83-26.3 232.38-26.3 232.38 0 228.83 0ZM230.63-32.05Q229.53-32.05 228.78-32.8 228.03-33.55 228.03-34.6L228.03-34.6Q228.03-35.6 228.78-36.35 229.53-37.1 230.63-37.1L230.63-37.1Q231.73-37.1 232.48-36.38 233.23-35.65 233.23-34.65L233.23-34.65Q233.23-33.55 232.48-32.8 231.73-32.05 230.63-32.05L230.63-32.05ZM255.68-26.5Q260.63-26.5 263.55-23.63 266.48-20.75 266.48-15.25L266.48-15.25 266.48 0 262.93 0 262.93-14.9Q262.93-19 260.88-21.15 258.83-23.3 255.03-23.3L255.03-23.3Q250.78-23.3 248.3-20.78 245.83-18.25 245.83-13.8L245.83-13.8 245.83 0 242.28 0 242.28-26.3 245.68-26.3 245.68-21.45Q247.13-23.85 249.7-25.18 252.28-26.5 255.68-26.5L255.68-26.5ZM294.23-26.3L297.73-26.3 284.57 3.15Q282.98 6.85 280.88 8.4 278.78 9.95 275.82 9.95L275.82 9.95Q273.93 9.95 272.28 9.35 270.63 8.75 269.43 7.55L269.43 7.55 271.07 4.9Q273.07 6.9 275.88 6.9L275.88 6.9Q277.68 6.9 278.95 5.9 280.23 4.9 281.32 2.5L281.32 2.5 282.48-0.05 270.73-26.3 274.43-26.3 284.32-3.95 294.23-26.3Z" opacity="1" transform="matrix(1,0,0,1,0,0)" fill="#000000" class="wordmark-text-0" data-fill-palette-color="primary" id="text-0"></path></svg></g></svg></g><g transform="matrix(1,0,0,1,0,81.46961738318035)"><svg viewBox="0 0 164.22509107520546 38.65063178625441" height="38.65063178625441" width="164.22509107520546"><g transform="matrix(1,0,0,1,0,0)"><svg width="164.22509107520546" viewBox="2.08 -39.84 224.98 52.95" height="38.65063178625441" data-palette-color="#000000"><path d="M8.74 0.88L8.74 0.78Q8.86-1 8.98-2.66 9.11-4.32 9.2-5.88L9.2-5.88 10.08-17.41Q10.23-18.73 10.33-19.81 10.42-20.9 10.49-21.94 10.55-22.97 10.61-24.04 10.67-25.1 10.74-26.39L10.74-26.39Q9.94-26.42 9.05-26.42 8.15-26.42 7.18-26.42L7.18-26.42 2.47-26.42Q2.2-26.42 2.14-26.62 2.08-26.83 2.08-27L2.08-27 2.08-27.17 4.76-34.23 4.74-34.33Q4.74-34.45 4.9-34.53 5.05-34.62 5.62-34.67L5.62-34.67Q8.98-34.86 12.15-35.05 15.31-35.23 18.4-35.38 21.48-35.52 24.57-35.67 27.66-35.82 30.93-35.94L30.93-35.94Q31.23-35.94 31.56-35.86 31.88-35.79 31.88-35.33L31.88-35.33Q31.88-35.28 31.86-35.23 31.84-35.18 31.84-35.13L31.84-35.13Q31.45-34.13 31.12-33.23 30.79-32.32 30.47-31.45 30.15-30.57 29.82-29.66 29.49-28.76 29.1-27.76L29.1-27.76Q29.08-27.73 29-27.53 28.93-27.32 28.78-27.06 28.64-26.81 28.39-26.59 28.15-26.37 27.78-26.34L27.78-26.34Q27.66-26.37 27.54-26.37 27.42-26.37 27.27-26.37L27.27-26.37 20.75-26.37Q20.63-25.12 20.52-23.73 20.41-22.34 20.26-21.02L20.26-21.02 18.48-1.95Q18.46-1.73 18.4-1.51 18.33-1.29 18.07-1.2L18.07-1.2 11.16 1.29Q10.89 1.39 10.45 1.54 10.01 1.68 9.59 1.68L9.59 1.68Q9.25 1.68 9 1.51 8.74 1.34 8.74 0.88L8.74 0.88ZM50.68-27.44L49.17-19.87Q48.65-19.92 48.02-19.98 47.39-20.04 46.68-20.04L46.68-20.04Q45.6-20.04 44.49-19.86 43.38-19.68 42.43-19.14 41.48-18.6 40.79-17.66 40.11-16.72 39.91-15.23L39.91-15.23Q39.74-13.43 39.63-12.27 39.52-11.11 39.48-10.36 39.43-9.62 39.39-9.17 39.35-8.72 39.33-8.33L39.33-8.33Q39.33-8.23 39.29-7.79 39.26-7.35 39.18-6.76 39.11-6.18 39.05-5.49 38.99-4.81 38.91-4.22 38.84-3.64 38.8-3.2 38.77-2.76 38.77-2.66L38.77-2.66Q38.77-2.47 38.78-2.33 38.79-2.2 38.79-2.08L38.79-2.08Q38.79-1.88 38.61-1.75 38.43-1.61 37.79-1.44L37.79-1.44 31.32 0.88Q31.05 0.98 30.61 1.12 30.17 1.27 29.76 1.27L29.76 1.27Q29.42 1.27 29.16 1.1 28.9 0.93 28.9 0.51L28.9 0.51 31-23.68Q31.08-24.49 31.19-24.79 31.3-25.1 31.74-25.2L31.74-25.2Q33.96-25.63 36.33-26.09 38.69-26.54 40.92-27.25L40.92-27.25Q41.11-27.25 41.15-27.19 41.18-27.12 41.18-27L41.18-27Q41.18-26.95 41.17-26.86 41.16-26.76 41.1-26.42 41.04-26.07 40.93-25.38 40.82-24.68 40.62-23.44L40.62-23.44Q41.75-24.32 43.1-25.05 44.46-25.78 45.82-26.31 47.19-26.83 48.46-27.14 49.73-27.44 50.68-27.44L50.68-27.44ZM78.29-27.66L75.78-4.91Q75.75-4.81 75.75-4.72 75.75-4.64 75.75-4.57L75.75-4.57Q75.75-3.96 75.95-3.55 76.14-3.15 76.37-2.89 76.61-2.64 76.8-2.48 77-2.32 77-2.2L77-2.2Q77-1.86 76.26-1.56L76.26-1.56 69.7 1.25Q69.67 1.27 69.53 1.27L69.53 1.27Q69.33 1.27 69.14 0.93 68.94 0.59 68.76 0.06 68.57-0.46 68.42-1.06 68.26-1.66 68.13-2.17L68.13-2.17Q66.6-0.39 64.81 0.44 63.03 1.27 61.27 1.27L61.27 1.27Q59.22 1.27 57.27 0.37 55.32-0.54 53.8-2.21 52.29-3.88 51.37-6.25 50.46-8.62 50.46-11.57L50.46-11.57Q50.46-15.06 51.47-17.94 52.49-20.83 54.22-22.9 55.95-24.98 58.26-26.11 60.57-27.25 63.15-27.25L63.15-27.25Q64.99-27.25 66.62-26.5 68.26-25.76 69.72-24.58L69.72-24.58Q69.87-25.32 69.89-25.76 69.92-26.2 70-26.44 70.09-26.68 70.33-26.77 70.58-26.86 71.14-26.9L71.14-26.9Q72.9-27.15 74.64-27.36 76.39-27.56 78.29-27.66L78.29-27.66ZM67.45-6.88L68.48-14.11Q68.72-15.5 68.81-16.74 68.89-17.97 68.94-18.99L68.94-18.99Q68.55-19.29 68.1-19.6 67.65-19.92 67.12-20.2 66.6-20.48 66.02-20.65 65.45-20.83 64.81-20.83L64.81-20.83Q63.5-20.83 62.6-19.97 61.71-19.12 61.16-17.87 60.62-16.63 60.38-15.23 60.15-13.84 60.15-12.77L60.15-12.77Q60.15-8.91 61.16-7.12 62.18-5.32 63.98-5.32L63.98-5.32Q64.72-5.32 65.62-5.74 66.52-6.15 67.45-6.88L67.45-6.88ZM99.26-27L99.26-27Q99.36-27.25 99.63-27.25L99.63-27.25Q99.68-27.25 99.72-27.23 99.77-27.22 99.82-27.22L99.82-27.22Q101.65-26.51 103.58-26.06 105.51-25.61 107.41-25.2L107.41-25.2Q107.88-25.1 107.88-24.66L107.88-24.66Q107.88-24.34 107.59-23.68L107.59-23.68 97.53-2.29Q97.33-1.86 97.18-1.59 97.04-1.32 96.89-1.15 96.75-0.98 96.57-0.9 96.4-0.83 96.16-0.78L96.16-0.78Q94.3-0.42 92.4 0.06 90.5 0.54 88.44 1.25L88.44 1.25Q88.4 1.25 88.37 1.26 88.35 1.27 88.32 1.27L88.32 1.27 88.15 1.27Q88.03 1.27 87.96 1.18 87.88 1.1 87.86 1.03L87.86 1.03Q87.49-0.02 87.02-1.68 86.54-3.34 85.98-5.4 85.42-7.45 84.81-9.77 84.2-12.08 83.56-14.48 82.93-16.87 82.3-19.23 81.68-21.58 81.1-23.68L81.1-23.68Q80.88-24.44 80.88-24.76L80.88-24.76Q80.88-25.1 81.27-25.2L81.27-25.2Q83.17-25.61 85.22-26.06 87.27-26.51 89.1-27.22L89.1-27.22Q89.18-27.25 89.32-27.25L89.32-27.25Q89.64-27.25 89.67-27L89.67-27 92.89-10.6Q93.01-10.89 93.3-11.66 93.6-12.43 94.01-13.5 94.43-14.58 94.93-15.87 95.43-17.16 95.95-18.51 96.48-19.85 96.99-21.18 97.5-22.51 97.95-23.66 98.41-24.8 98.75-25.68 99.09-26.56 99.26-27ZM122.91-27.25L122.91-27.25Q125.23-27.25 127.13-26.38 129.02-25.51 130.37-24.13 131.73-22.75 132.46-21.04 133.19-19.34 133.19-17.63L133.19-17.63Q133.19-16.11 132.27-14.59 131.34-13.06 129.67-11.84 127.99-10.62 125.65-9.86 123.31-9.11 120.5-9.11L120.5-9.11Q119.03-9.11 117.42-9.4L117.42-9.4Q117.52-8.35 118.03-7.59 118.54-6.84 119.33-6.35 120.11-5.86 121.1-5.63 122.08-5.4 123.13-5.4L123.13-5.4Q124.31-5.4 125.39-5.6 126.48-5.81 127.48-6.15 128.48-6.49 129.41-6.91 130.34-7.32 131.17-7.74L131.17-7.74Q131.39-7.79 131.55-7.82 131.7-7.86 131.85-7.86L131.85-7.86Q131.85-7.86 131.84-7.47 131.83-7.08 131.83-6.37 131.83-5.66 131.81-4.66 131.8-3.66 131.78-2.44L131.78-2.44Q131.85-2.32 131.87-2.2 131.9-2.08 131.9-2L131.9-2Q131.9-1.71 131.36-1.37 130.82-1.03 129.96-0.66 129.09-0.29 127.98 0.05 126.87 0.39 125.72 0.67 124.57 0.95 123.5 1.11 122.43 1.27 121.62 1.27L121.62 1.27Q118.98 1.27 116.51 0.35 114.03-0.56 112.11-2.27 110.2-3.98 109.05-6.42 107.9-8.86 107.9-11.91L107.9-11.91Q107.9-15.11 109-17.91 110.1-20.7 112.09-22.78 114.08-24.85 116.84-26.05 119.59-27.25 122.91-27.25ZM122.62-20.75L122.62-20.75Q121.62-20.75 120.78-20.32 119.94-19.9 119.24-19.1 118.54-18.31 118.03-17.2 117.52-16.09 117.2-14.75L117.2-14.75Q119.72-15.19 121.38-15.67 123.04-16.16 124.04-16.66 125.04-17.16 125.45-17.66 125.87-18.16 125.87-18.63L125.87-18.63Q125.87-19.07 125.54-19.46 125.21-19.85 124.72-20.14 124.23-20.43 123.66-20.59 123.09-20.75 122.62-20.75ZM137.93-20.65L137.93-20.65Q138.22-24 138.4-27.27 138.59-30.54 138.81-33.98L138.81-33.98Q138.85-34.79 138.96-35.1 139.07-35.4 139.51-35.5L139.51-35.5Q141.78-35.91 144.07-36.34 146.35-36.77 148.64-37.48L148.64-37.48Q148.72-37.5 148.86-37.5L148.86-37.5Q149.13-37.5 149.13-37.26L149.13-37.26 145.96-2.39 145.96-1.98Q145.96-1.76 145.79-1.62 145.62-1.49 144.98-1.32L144.98-1.32 138.59 1.03Q138.32 1.15 137.88 1.28 137.44 1.42 137.02 1.42L137.02 1.42Q136.68 1.42 136.43 1.25 136.17 1.07 136.17 0.66L136.17 0.66 136.17 0.51Q136.36-1.95 136.55-4.31 136.73-6.67 136.94-9.18 137.15-11.69 137.39-14.5 137.63-17.31 137.93-20.65ZM152.06-10.35L152.06-10.35Q152.38-13.7 152.69-16.97 153.01-20.24 153.26-23.68L153.26-23.68Q153.31-24.49 153.42-24.79 153.53-25.1 153.96-25.2L153.96-25.2Q156.04-25.61 158.31-26.06 160.58-26.51 162.7-27.22L162.7-27.22Q162.78-27.25 162.92-27.25L162.92-27.25Q163.19-27.25 163.19-27.05L163.19-27.05 161-3.27Q160.92-2.47 160.82-2.16 160.73-1.86 160.29-1.76L160.29-1.76Q158.21-1.12 156.09-0.34 153.96 0.44 151.6 1.25L151.6 1.25Q151.52 1.27 151.38 1.27L151.38 1.27Q151.11 1.27 151.11 1.03L151.11 1.03Q151.11 1 151.16 0.37 151.21-0.27 151.29-1.27 151.38-2.27 151.47-3.52 151.57-4.76 151.68-6.01 151.79-7.25 151.89-8.4 151.99-9.55 152.06-10.35ZM153.89-29.83L153.89-29.83Q153.96-30.88 154-31.45 154.04-32.01 154.06-32.29 154.09-32.57 154.09-32.64 154.09-32.71 154.1-32.75 154.11-32.79 154.12-32.9 154.14-33.01 154.16-33.36 154.18-33.72 154.23-34.4 154.28-35.08 154.38-36.28L154.38-36.28Q154.43-37.08 154.54-37.39 154.65-37.7 155.09-37.79L155.09-37.79Q157.16-38.21 159.43-38.66 161.7-39.11 163.83-39.82L163.83-39.82Q163.9-39.84 164.05-39.84L164.05-39.84Q164.12-39.7 164.24-39.65L164.24-39.65 164.32-39.6 163.78-32.91Q163.71-32.1 163.6-31.79 163.49-31.47 163.07-31.4L163.07-31.4Q161-31.01 158.87-30.54 156.75-30.08 154.38-29.61L154.38-29.61Q154.31-29.59 154.16-29.59L154.16-29.59Q153.89-29.59 153.89-29.83ZM192.56-0.78L186.63 0.88Q186.36 0.95 185.92 1.11 185.48 1.27 185.07 1.27L185.07 1.27Q184.72 1.27 184.47 1.1 184.21 0.93 184.21 0.51L184.21 0.51 184.21 0.37Q184.36-0.95 184.46-1.87 184.55-2.78 184.64-3.53 184.72-4.27 184.78-5.02 184.85-5.76 184.94-6.75 185.04-7.74 185.18-9.09 185.31-10.45 185.5-12.48L185.5-12.48Q185.63-13.72 185.72-15.01 185.82-16.31 185.82-17.41L185.82-17.41Q185.82-18.14 185.71-18.76 185.6-19.38 185.32-19.84 185.04-20.29 184.55-20.53 184.06-20.78 183.31-20.78L183.31-20.78Q182.75-20.78 181.76-20.53 180.77-20.29 179.79-19.73 178.82-19.17 178.06-18.25 177.3-17.33 177.2-15.99L177.2-15.99Q177.06-14.18 176.94-12.9 176.81-11.62 176.72-10.73 176.62-9.84 176.56-9.28 176.5-8.72 176.47-8.33L176.47-8.33Q176.45-8.23 176.4-7.79 176.35-7.35 176.29-6.74 176.23-6.13 176.17-5.44 176.11-4.76 176.04-4.15 175.98-3.54 175.95-3.1 175.91-2.66 175.91-2.56L175.91-2.56Q175.91-2.37 175.92-2.23 175.93-2.1 175.93-1.98L175.93-1.98Q175.93-1.78 175.75-1.65 175.57-1.51 174.93-1.34L174.93-1.34 168.46 0.88Q168.2 0.98 167.76 1.12 167.32 1.27 166.9 1.27L166.9 1.27Q166.56 1.27 166.3 1.1 166.05 0.93 166.05 0.51L166.05 0.51 168.27-24.44Q168.34-25.24 168.45-25.55 168.56-25.85 169-25.95L169-25.95Q171.22-26.39 173.57-26.84 175.91-27.29 178.13-28L178.13-28Q178.33-28 178.36-27.94 178.4-27.88 178.4-27.76L178.4-27.76Q178.4-27.71 178.39-27.61 178.38-27.51 178.32-27.17 178.25-26.83 178.14-26.14 178.03-25.44 177.84-24.19L177.84-24.19Q179.52-25.17 181-25.77 182.48-26.37 183.78-26.7 185.09-27.03 186.24-27.14 187.38-27.25 188.39-27.25L188.39-27.25Q191.83-27.25 193.39-25.16 194.95-23.07 194.95-18.9L194.95-18.9Q194.95-18.31 194.93-17.69 194.9-17.07 194.83-16.41L194.83-16.41 193.71-5.91Q193.59-4.88 193.56-4.02 193.54-3.15 193.54-2L193.54-2Q193.54-1.81 193.55-1.67 193.56-1.54 193.56-1.44L193.56-1.44Q193.56-1.22 193.38-1.1 193.2-0.98 192.56-0.78L192.56-0.78ZM216.41-17.04L216.44-17.41Q216.19-17.97 215.76-18.55 215.34-19.14 214.77-19.63 214.21-20.12 213.55-20.42 212.9-20.73 212.16-20.73L212.16-20.73Q211.16-20.73 210.28-19.9 209.4-19.07 208.74-17.69 208.09-16.31 207.71-14.54 207.33-12.77 207.33-10.86L207.33-10.86Q207.33-9.69 207.54-8.65 207.74-7.62 208.18-6.84 208.62-6.05 209.32-5.59 210.01-5.13 210.99-5.13L210.99-5.13Q212.46-5.13 213.68-6.04 214.9-6.96 215.75-8.42L215.75-8.42Q215.78-8.94 215.82-9.64 215.87-10.35 215.95-11.36 216.02-12.38 216.13-13.76 216.24-15.14 216.41-17.04L216.41-17.04ZM227.03-25.71L224.52-2.66Q224.27-0.24 223.42 1.86 222.56 3.96 221.26 5.7 219.95 7.45 218.28 8.83 216.61 10.21 214.74 11.16 212.87 12.11 210.89 12.61 208.92 13.11 206.99 13.11L206.99 13.11Q205.96 13.11 204.89 13.04 203.81 12.96 202.79 12.76 201.76 12.55 200.83 12.17 199.91 11.79 199.17 11.21L199.17 11.21 199.17 11.18Q199.17 11.06 199.36 10.33 199.54 9.59 199.8 8.61 200.05 7.62 200.33 6.57 200.61 5.52 200.81 4.76L200.81 4.76Q200.91 4.42 201.01 4.3 201.1 4.17 201.23 4.17L201.23 4.17Q201.37 4.17 201.4 4.2L201.4 4.2Q202.1 4.66 202.73 4.97 203.35 5.27 204.04 5.46 204.74 5.64 205.57 5.71 206.4 5.79 207.5 5.79L207.5 5.79Q209.21 5.79 210.53 5.13 211.85 4.47 212.8 3.42 213.75 2.37 214.32 1.11 214.9-0.15 215.12-1.37L215.12-1.37Q213.36-0.2 211.55 0.54 209.75 1.27 207.91 1.27L207.91 1.27Q205.4 1.27 203.57 0.26 201.74-0.76 200.54-2.47 199.35-4.17 198.77-6.38 198.2-8.59 198.2-11.01L198.2-11.01Q198.2-12.92 198.55-14.86 198.91-16.8 199.6-18.6 200.3-20.41 201.32-21.98 202.35-23.56 203.69-24.73 205.03-25.9 206.67-26.57 208.31-27.25 210.23-27.25L210.23-27.25Q212.33-27.25 214.13-26.32 215.92-25.39 217.39-24.02L217.39-24.02Q217.44-24.46 217.46-24.72 217.48-24.98 217.58-25.12 217.68-25.27 217.91-25.34 218.14-25.42 218.58-25.51L218.58-25.51Q218.85-25.56 219.56-25.72 220.27-25.88 221.24-26.1 222.22-26.32 223.39-26.56 224.56-26.81 225.76-27.08L225.76-27.08Q226.05-27.15 226.3-27.15L226.3-27.15Q227.06-27.15 227.06-26.17L227.06-26.17Q227.06-26.05 227.06-25.94 227.06-25.83 227.03-25.71L227.03-25.71Z" opacity="1" transform="matrix(1,0,0,1,0,0)" fill="#000000" class="slogan-text-1" data-fill-palette-color="secondary" id="text-1"></path></svg></g></svg></g></svg></g></svg></g><g><svg viewBox="0 0 236.35692039661137 314.47481232558016" height="314.47481232558016" width="236.35692039661137"><g><svg xmlns="http://www.w3.org/2000/svg" xmlns:xlink="http://www.w3.org/1999/xlink" version="1.1" x="0" y="0" viewBox="7.889 0.139 37.775999999999996 50.261276422441625" enable-background="new 0 0 50.4 50.4" xml:space="preserve" width="236.35692039661137" height="314.47481232558016" class="icon-icon-0" data-fill-palette-color="accent" id="icon-0"><g fill="#000000" data-fill-palette-color="accent"><g fill="#000000" data-fill-palette-color="accent"><path d="M15.291 5.034c-1.146 0-2.081 0.933-2.081 2.081 0 1.145 0.934 2.081 2.081 2.081 1.149 0 2.083-0.936 2.083-2.081C17.374 5.967 16.439 5.034 15.291 5.034z" fill="#000000" data-fill-palette-color="accent"></path><path d="M12.596 2.236V0.139h-2.313v2.097H7.889v9.754h6.523v7.25c0 0.532 0.432 0.965 0.964 0.965s0.963-0.433 0.963-0.965v-7.25h6.35V2.236H12.596zM15.291 10.582c-1.913 0-3.468-1.553-3.468-3.467 0-1.914 1.555-3.467 3.468-3.467 1.914 0 3.47 1.554 3.47 3.467C18.76 9.028 17.204 10.582 15.291 10.582z" fill="#000000" data-fill-palette-color="accent"></path></g><path d="M11.303 29.483l-1.985-1.178c-0.524-0.279-0.632-0.677-0.324-1.204l3.716-6.418c0.277-0.527 0.677-0.635 1.203-0.325l1.985 1.18c0.522 0.274 0.631 0.677 0.322 1.199l-3.714 6.424C12.229 29.685 11.828 29.792 11.303 29.483z" fill="#000000" data-fill-palette-color="accent"></path><path d="M17.316 35.867l0.047 5.688c0 0.309-0.063 0.602-0.186 0.876l-3.308 6.913c-0.4 0.834-1.095 1.173-2.082 1.021-0.587-0.094-1.048-0.365-1.387-0.814-0.34-0.443-0.462-0.962-0.371-1.545 0.031-0.186 0.107-0.42 0.232-0.696l2.983-6.263-0.138-9.198c-0.032-0.678 0.095-1.247 0.381-1.712l4.217-7.255c0.832-1.425 2.078-2.016 3.742-1.769 0.953 0.156 1.693 0.538 2.216 1.156l3.787 4.58 4.989 1.479c0.739 0.247 1.107 0.756 1.107 1.527 0 0.433-0.153 0.816-0.462 1.158-0.307 0.339-0.678 0.505-1.11 0.505-0.124 0-0.264-0.032-0.414-0.091L25.78 29.76c-0.249-0.091-0.433-0.23-0.555-0.414l-1.527-1.943-3.052 5.319 4.81 2.175c0.647 0.279 1.03 0.769 1.155 1.479l1.063 6.704c0.091 0.683-0.115 1.258-0.624 1.738-0.509 0.474-1.102 0.67-1.782 0.575-0.985-0.153-1.54-0.696-1.662-1.618l-0.879-5.55L17.316 35.867z" fill="#000000" data-fill-palette-color="accent"></path><path d="M45.665 22.336v26.345c0 0.427-0.147 0.986-0.44 1.279s-0.653 0.44-1.084 0.44H19.86l-0.093-1.865 9.943-2.446 0.371-2.776 5.241-2.104 0.739-2.357-1.681-5.806 2.82-5.893L45.665 22.336z" fill="#000000" data-fill-palette-color="accent"></path><circle cx="24.63" cy="17.812" r="3.1" fill="#000000" data-fill-palette-color="accent"></circle></g></svg></g></svg></g></svg></g><defs></defs></svg><rect width="395.52" height="191.76290847442155" fill="none" stroke="none" visibility="hidden"></rect></g></svg></g></svg>